<svg width="257" xmlns="http://www.w3.org/2000/svg" height="80" id="screenshot-299c2368-8ca0-80ae-8006-eefa1a6765a3"
  viewBox="0 0 257 80" xmlns:xlink="http://www.w3.org/1999/xlink" fill="none" version="1.1">
  <style>
    /* ethiopic */
    @font-face {
      font-family: 'Abyssinica SIL';
      font-style: normal;
      font-weight: 400;
      font-display: block;
      src: url(http://localhost:6080/internal/gfonts/font/abyssinicasil/v9/oY1H8ezOqK7iI3rK_45WKoc8J5UPDlKlAQ.woff2) format('woff2');
      unicode-range: U+030E, U+1200-1399, U+2D80-2DDE, U+AB01-AB2E, U+1E7E0-1E7E6, U+1E7E8-1E7EB, U+1E7ED-1E7EE, U+1E7F0-1E7FE;
    }

    /* latin-ext */
    @font-face {
      font-family: 'Abyssinica SIL';
      font-style: normal;
      font-weight: 400;
      font-display: block;
      src: url(http://localhost:6080/internal/gfonts/font/abyssinicasil/v9/oY1H8ezOqK7iI3rK_45WKoc8J5UQDlKlAQ.woff2) format('woff2');
      unicode-range: U+0100-02BA, U+02BD-02C5, U+02C7-02CC, U+02CE-02D7, U+02DD-02FF, U+0304, U+0308, U+0329, U+1D00-1DBF, U+1E00-1E9F, U+1EF2-1EFF, U+2020, U+20A0-20AB, U+20AD-20C0, U+2113, U+2C60-2C7F, U+A720-A7FF;
    }

    /* latin */
    @font-face {
      font-family: 'Abyssinica SIL';
      font-style: normal;
      font-weight: 400;
      font-display: block;
      src: url(http://localhost:6080/internal/gfonts/font/abyssinicasil/v9/oY1H8ezOqK7iI3rK_45WKoc8J5UeDlI.woff2) format('woff2');
      unicode-range: U+0000-00FF, U+0131, U+0152-0153, U+02BB-02BC, U+02C6, U+02DA, U+02DC, U+0304, U+0308, U+0329, U+2000-206F, U+20AC, U+2122, U+2191, U+2193, U+2212, U+2215, U+FEFF, U+FFFD;
    }

    /* cyrillic */
    @font-face {
      font-family: 'Geist';
      font-style: normal;
      font-weight: 400;
      font-display: block;
      src: url(http://localhost:6080/internal/gfonts/font/geist/v4/gyBhhwUxId8gMGYQMKR3pzfaWI_RnOMInpna-1Q.woff2) format('woff2');
      unicode-range: U+0301, U+0400-045F, U+0490-0491, U+04B0-04B1, U+2116;
    }

    /* latin-ext */
    @font-face {
      font-family: 'Geist';
      font-style: normal;
      font-weight: 400;
      font-display: block;
      src: url(http://localhost:6080/internal/gfonts/font/geist/v4/gyBhhwUxId8gMGYQMKR3pzfaWI_RnOMIlJna-1Q.woff2) format('woff2');
      unicode-range: U+0100-02BA, U+02BD-02C5, U+02C7-02CC, U+02CE-02D7, U+02DD-02FF, U+0304, U+0308, U+0329, U+1D00-1DBF, U+1E00-1E9F, U+1EF2-1EFF, U+2020, U+20A0-20AB, U+20AD-20C0, U+2113, U+2C60-2C7F, U+A720-A7FF;
    }

    /* latin */
    @font-face {
      font-family: 'Geist';
      font-style: normal;
      font-weight: 400;
      font-display: block;
      src: url(http://localhost:6080/internal/gfonts/font/geist/v4/gyBhhwUxId8gMGYQMKR3pzfaWI_RnOMImpna.woff2) format('woff2');
      unicode-range: U+0000-00FF, U+0131, U+0152-0153, U+02BB-02BC, U+02C6, U+02DA, U+02DC, U+0304, U+0308, U+0329, U+2000-206F, U+20AC, U+2122, U+2191, U+2193, U+2212, U+2215, U+FEFF, U+FFFD;
    }
  </style>
  <g id="shape-299c2368-8ca0-80ae-8006-eefa1a6765a3" rx="0" ry="0">
    <g id="shape-422e88a4-1913-80ce-8006-eef3ec10b63e">
      <g transform="matrix(1.000000, 0.000000, 0.000000, 1.000000, 0.000000, 0.000000)" class="text-container" x="109"
        y="30" width="148" height="44" rx="0" ry="0">
        <defs>
          <pattern patternUnits="objectBoundingBox" width="147.5500030517578" height="47.5" id="fill-0-render-2-0">
            <g>
              <rect width="147.5500030517578" height="47.5" style="fill: rgb(0, 0, 0); fill-opacity: 1;" />
            </g>
          </pattern>
        </defs>
        <g class="fills" id="fills-422e88a4-1913-80ce-8006-eef3ec10b63e">
          <text x="109" y="75.35000610351562"
            class="fill-secondary"
            dominant-baseline="ideographic" textLength="147.5500030517578" lengthAdjust="spacingAndGlyphs"
            style="text-transform: none; font-family: Geist; letter-spacing: normal; font-style: normal; font-weight: 400; white-space: pre; font-size: 36px; text-decoration: underline; direction: ltr;">rieftaube</text>
        </g>
      </g>
    </g>
    <g id="shape-422e88a4-1913-80ce-8006-eef608ac97f9">
      <g class="fills" id="fills-422e88a4-1913-80ce-8006-eef608ac97f9">
        <path
          class="fill-primary"
          d="M83,78C94,76,97.04046630859375,74.049560546875,99.5,72C102.5,69.5,107.35601806640625,63.86395263671875,109,54C109.5,51,110.11785888671875,45.471435546875,108,37C106.5,31,104,27,102.5,25C99.5,21.00006103515625,99,19,100,17C101.4141845703125,14.17156982421875,110.5,16.5,110.5,16.5C110.5,16.5,104,11,103.5,9.5C102.4393310546875,6.31805419921875,101,4,99,2.5C97,1,93,0,90,0C86.77838134765625,-0.00006103515625,83.5,1,82,2C80.2349853515625,3.17669677734375,78.5,5,77,8C75.297119140625,11.4058837890625,75,14.45050048828125,75,17C75,19,75.5,25,70,26.5C67.1448974609375,27.2786865234375,64.221435546875,26.88922119140625,60,29C56,31,52.8863525390625,34.18182373046875,48,42C45.5,46,41.89080810546875,56.8748779296875,35,63C26,71,0,79,0,79C0,79,18.17596435546875,79.9376220703125,54.5,79.5C73.50927734375,79.27099609375,74.0906982421875,79.619873046875,83,78M43,121.392333984375" />
      </g>
      <g id="strokes-dfff1835-b49b-809d-8006-eefa781f6716-422e88a4-1913-80ce-8006-eef608ac97f9" class="strokes">
        <g class="inner-stroke-shape">
          <defs>
            <clipPath id="inner-stroke-render-3-422e88a4-1913-80ce-8006-eef608ac97f9-0">
              <use href="#stroke-shape-render-3-422e88a4-1913-80ce-8006-eef608ac97f9-0" />
            </clipPath>
            <path
              d="M83,78C94,76,97.04046630859375,74.049560546875,99.5,72C102.5,69.5,107.35601806640625,63.86395263671875,109,54C109.5,51,110.11785888671875,45.471435546875,108,37C106.5,31,104,27,102.5,25C99.5,21.00006103515625,99,19,100,17C101.4141845703125,14.17156982421875,110.5,16.5,110.5,16.5C110.5,16.5,104,11,103.5,9.5C102.4393310546875,6.31805419921875,101,4,99,2.5C97,1,93,0,90,0C86.77838134765625,-0.00006103515625,83.5,1,82,2C80.2349853515625,3.17669677734375,78.5,5,77,8C75.297119140625,11.4058837890625,75,14.45050048828125,75,17C75,19,75.5,25,70,26.5C67.1448974609375,27.2786865234375,64.221435546875,26.88922119140625,60,29C56,31,52.8863525390625,34.18182373046875,48,42C45.5,46,41.89080810546875,56.8748779296875,35,63C26,71,0,79,0,79C0,79,18.17596435546875,79.9376220703125,54.5,79.5C73.50927734375,79.27099609375,74.0906982421875,79.619873046875,83,78M43,121.392333984375"
              id="stroke-shape-render-3-422e88a4-1913-80ce-8006-eef608ac97f9-0"
              style="fill: none; stroke-width: 4; stroke: rgb(0, 0, 0); stroke-opacity: 1;" />
          </defs>
          <use href="#stroke-shape-render-3-422e88a4-1913-80ce-8006-eef608ac97f9-0"
            clip-path="url('#inner-stroke-render-3-422e88a4-1913-80ce-8006-eef608ac97f9-0')" />
        </g>
      </g>
    </g>
    <g id="shape-422e88a4-1913-80ce-8006-eef46dd4b54a">
      <g transform="matrix(1.000000, 0.000000, 0.000000, 1.000000, 0.000000, 0.000000)" class="text-container" x="79"
        y="24" width="34.000000000000114" height="56" rx="0" ry="0">
        <defs>
          <pattern patternUnits="objectBoundingBox" width="26.616668701171875" height="59" id="fill-0-render-4-0">
            <g>
              <rect width="26.616668701171875" height="59" style="fill: rgb(255, 255, 255); fill-opacity: 1;" />
            </g>
          </pattern>
        </defs>
        <g class="fills" id="fills-422e88a4-1913-80ce-8006-eef46dd4b54a"><text x="79" y="79.89999389648438"
            dominant-baseline="ideographic" textLength="26.616668701171875" lengthAdjust="spacingAndGlyphs"
            style="text-transform: none; font-family: &quot;Abyssinica SIL&quot;; letter-spacing: normal; font-style: normal; font-weight: 400; white-space: pre; font-size: 44px; text-decoration: none; direction: ltr;" class="fill-primary-content">B</text>
        </g>
      </g>
    </g>
  </g>
</svg>